<svg viewBox="0.5 68.5 173.685 55" xmlns="http://www.w3.org/2000/svg">
  <title>logo-drk</title>
  <path fill="#E60005" d="M36.89 68.587v18.208h18.176v18.237H36.89v18.206H18.68v-18.206H.5V86.795h18.18V68.587z"></path>
  <path d="M69.25 68.5h6.542c3.908 0 6.832 2.46 6.832 7.44 0 4.37-2.23 7.61-6.832 7.61h-6.51V68.5m3.298 12.302h2.952c1.91 0 3.762-1.186 3.762-4.515 0-3.04-1.04-4.98-4.342-4.98H72.58v9.495zM86.907 78.862c.088 1.91 1.014 2.78 2.69 2.78 1.216 0 2.175-.725 2.376-1.42h2.635c-.84 2.578-2.634 3.678-5.095 3.678-3.443 0-5.586-2.374-5.586-5.732 0-3.27 2.258-5.76 5.586-5.76 3.707 0 5.53 3.126 5.297 6.483l-7.903-.028m4.893-1.91c-.26-1.534-.926-2.314-2.373-2.314-1.912 0-2.46 1.475-2.49 2.314H91.8zM106.796 83.61h-2.836v-1.534h-.06a3.925 3.925 0 0 1-3.33 1.853c-3.183 0-3.995-1.824-3.995-4.487V72.67h3.012v6.165c0 1.823.52 2.692 1.91 2.692 1.62 0 2.318-.897 2.318-3.127v-5.73h3.008l-.027 10.94M113.02 72.668h2.2v1.998h-2.2v5.44c0 1.015.26 1.275 1.27 1.275.32 0 .61-.03.93-.086v2.345c-.52.086-1.158.114-1.797.114-1.852 0-3.44-.434-3.44-2.604v-6.456h-1.798v-2.026h1.852v-3.27h3.012l-.03 3.27M119.155 80.05c.03 1.302 1.13 1.853 2.314 1.853.87 0 1.97-.347 1.97-1.39 0-.896-1.244-1.216-3.387-1.68-1.736-.375-3.473-.982-3.473-2.922 0-2.778 2.398-3.503 4.744-3.503 2.375 0 4.574.81 4.807 3.475h-2.866c-.084-1.158-.982-1.477-2.055-1.477-.665 0-1.68.116-1.68 1.013 0 1.07 1.68 1.216 3.388 1.622 1.793.404 3.475 1.042 3.475 3.067 0 2.866-2.49 3.793-4.98 3.793-2.548 0-5.01-.956-5.122-3.85h2.865M135.452 76.49c-.2-1.217-.982-1.883-2.23-1.883-1.91 0-2.546 1.94-2.546 3.56 0 1.564.607 3.445 2.488 3.445 1.39 0 2.2-.896 2.375-2.23h2.895c-.38 2.896-2.375 4.488-5.27 4.488-3.3 0-5.53-2.315-5.53-5.587 0-3.388 2.027-5.905 5.588-5.905 2.578 0 4.95 1.36 5.123 4.14l-2.894-.03M140.142 68.5h3.012v5.673h.057c.755-1.215 2.056-1.852 3.187-1.852 3.186 0 3.994 1.824 3.994 4.487v6.744h-3.01v-6.163c0-1.825-.522-2.693-1.91-2.693-1.62 0-2.315.896-2.315 3.127v5.73h-3.012V68.5M155.022 78.862c.086 1.91 1.014 2.78 2.69 2.78 1.216 0 2.17-.725 2.374-1.42h2.635c-.84 2.577-2.634 3.678-5.124 3.678-3.443 0-5.586-2.374-5.586-5.732 0-3.27 2.26-5.76 5.586-5.76 3.707 0 5.53 3.126 5.3 6.483l-7.874-.028m4.862-1.91c-.29-1.534-.924-2.314-2.37-2.314-1.91 0-2.464 1.475-2.49 2.314h4.86zM166.976 80.05c.03 1.302 1.13 1.853 2.287 1.853.87 0 1.97-.347 1.97-1.39 0-.896-1.245-1.216-3.388-1.68-1.736-.375-3.473-.982-3.473-2.922 0-2.778 2.402-3.503 4.746-3.503 2.373 0 4.572.81 4.807 3.475h-2.867c-.086-1.158-.984-1.477-2.057-1.477-.66 0-1.675.116-1.675 1.013 0 1.07 1.676 1.216 3.387 1.622 1.736.404 3.473 1.042 3.473 3.067 0 2.866-2.488 3.793-4.98 3.793-2.548 0-5.007-.956-5.122-3.85h2.893M69.31 88.27h8.133c2.693 0 4.4 1.882 4.4 4.17 0 1.794-.725 3.097-2.373 3.792v.057c1.62.434 2.084 1.997 2.2 3.53.056.956.028 2.723.636 3.563h-3.33c-.404-.957-.346-2.404-.52-3.62-.23-1.593-.84-2.286-2.52-2.286H72.61v5.877h-3.328l.027-15.083m3.3 6.832h3.615c1.477 0 2.287-.636 2.287-2.14 0-1.45-.81-2.085-2.287-2.085H72.61v4.225zM89.282 92.15c3.443 0 5.643 2.287 5.643 5.76s-2.227 5.732-5.643 5.732-5.645-2.287-5.645-5.73c-.03-3.474 2.23-5.762 5.645-5.762m0 9.263c2.057 0 2.662-1.796 2.662-3.473 0-1.796-.605-3.503-2.662-3.503-2.027 0-2.635 1.795-2.635 3.503 0 1.706.58 3.473 2.635 3.473M100.63 92.41h2.2v1.997h-2.2v5.444c0 1.014.262 1.272 1.273 1.272.318 0 .607-.03.926-.085v2.345c-.522.085-1.16.115-1.794.115-1.855 0-3.447-.435-3.447-2.604v-6.456h-1.853V92.44h1.852v-3.272h3.01v3.243M106.796 98.664c.086 1.91 1.012 2.778 2.69 2.778 1.218 0 2.17-.753 2.376-1.42h2.633c-.84 2.577-2.633 3.678-5.123 3.678-3.447 0-5.588-2.372-5.588-5.732 0-3.27 2.258-5.76 5.588-5.76 3.703 0 5.527 3.126 5.3 6.486l-7.876-.03m4.89-1.91c-.288-1.536-.927-2.316-2.374-2.316-1.91 0-2.46 1.476-2.488 2.315h4.863zM118.78 99.82c.027 1.303 1.127 1.852 2.314 1.852.87 0 1.97-.344 1.97-1.387 0-.897-1.245-1.217-3.388-1.68-1.736-.376-3.475-.984-3.475-2.924 0-2.778 2.405-3.502 4.75-3.502 2.374 0 4.573.81 4.804 3.475h-2.81c-.083-1.158-.952-1.477-2.054-1.477-.664 0-1.678.116-1.678 1.013 0 1.07 1.678 1.215 3.39 1.62 1.792.405 3.47 1.043 3.47 3.068 0 2.866-2.488 3.794-4.98 3.794-2.548 0-5.007-.958-5.122-3.852h2.81M69.25 108.072h3.33v6.282l5.905-6.282h4.14l-5.878 5.932 6.455 9.15h-4.168l-4.544-6.775-1.91 1.94v4.833h-3.33zM84.216 112.21h2.838v2.028h.027c.552-1.36 2.028-2.317 3.476-2.317.203 0 .463.03.666.118v2.78a5.64 5.64 0 0 0-1.07-.118c-2.2 0-2.953 1.594-2.953 3.504v4.92h-3.013l.03-10.913M94.52 118.434c.09 1.91 1.015 2.75 2.694 2.75 1.186 0 2.17-.752 2.373-1.418h2.635c-.842 2.577-2.635 3.677-5.125 3.677-3.443 0-5.586-2.374-5.586-5.73 0-3.273 2.257-5.763 5.587-5.763 3.705 0 5.53 3.127 5.3 6.484H94.52m4.864-1.91c-.29-1.535-.928-2.315-2.373-2.315-1.91 0-2.46 1.476-2.49 2.313h4.864zM114.206 123.153h-2.838v-1.507h-.06a3.915 3.915 0 0 1-3.33 1.854c-3.18 0-3.99-1.823-3.99-4.487v-6.715h3.01v6.166c0 1.823.52 2.69 1.91 2.69 1.622 0 2.315-.895 2.315-3.124v-5.732h3.012l-.03 10.855M115.884 120.894l5.646-6.396h-5.21v-2.287h9.175v2.288l-5.644 6.396h6.05v2.26h-10.016z"></path>
</svg>